<svg width="10" height="12" viewBox="0 0 10 12" fill="none" xmlns="http://www.w3.org/2000/svg">
<path d="M0.5 1C0.5 0.723858 0.723858 0.5 1 0.5H6.54007C6.68603 0.5 6.8247 0.563781 6.91969 0.674604L9.37963 3.54453C9.4573 3.63515 9.5 3.75057 9.5 3.86992V11C9.5 11.2761 9.27614 11.5 9 11.5H1C0.723858 11.5 0.5 11.2761 0.5 11V1Z" stroke="black"/>
<path d="M2.84863 8.86621H2.99805C3.1377 8.86621 3.24219 8.83887 3.31152 8.78418C3.38086 8.72852 3.41553 8.64795 3.41553 8.54248C3.41553 8.43604 3.38623 8.35742 3.32764 8.30664C3.27002 8.25586 3.1792 8.23047 3.05518 8.23047H2.84863V8.86621ZM3.87402 8.52637C3.87402 8.75684 3.80176 8.93311 3.65723 9.05518C3.51367 9.17725 3.30908 9.23828 3.04346 9.23828H2.84863V10H2.39453V7.8584H3.07861C3.33838 7.8584 3.53564 7.91455 3.67041 8.02686C3.80615 8.13818 3.87402 8.30469 3.87402 8.52637Z" fill="black"/>
<path d="M6.05518 8.90869C6.05518 9.26123 5.95459 9.53125 5.75342 9.71875C5.55322 9.90625 5.26367 10 4.88477 10H4.27832V7.8584H4.95068C5.30029 7.8584 5.57178 7.95068 5.76514 8.13525C5.9585 8.31982 6.05518 8.57764 6.05518 8.90869ZM5.5835 8.92041C5.5835 8.46045 5.38037 8.23047 4.97412 8.23047H4.73242V9.625H4.92725C5.36475 9.625 5.5835 9.39014 5.5835 8.92041Z" fill="black"/>
<path d="M6.9458 10H6.49902V7.8584H7.72656V8.23047H6.9458V8.78271H7.67236V9.15332H6.9458V10Z" fill="black"/>
<path d="M6.75 3V0.665362L9.44906 3.75H7.5C7.08579 3.75 6.75 3.41421 6.75 3Z" stroke="black" stroke-width="0.5"/>
</svg>
