<svg xmlns="http://www.w3.org/2000/svg" width="202" height="41" fill="none"><path d="M80.576 26.036v-.978c-.438-.253-.875-.543-1.421-.724v-8.113c-1.458-.036-3.025.073-4.155.363v1.014a5.889 5.889 0 0 1 1.53.398v6.338c-.582.145-1.056.435-1.53.724V26h5.576zm-1.13-12.422c0-.797-.729-1.449-1.567-1.449-.802 0-1.567.652-1.567 1.485 0 .797.729 1.449 1.567 1.449.838-.037 1.567-.688 1.567-1.485zM93.15 26.036v-.978a6.19 6.19 0 0 0-1.385-.724c.073-1.231.11-2.789.11-4.02 0-2.825-1.058-4.201-3.208-4.201-1.64 0-2.842.797-3.353 1.92l-.036-.037c.073-.47.11-1.268.11-1.775-1.349-.036-2.953.11-4.046.399v.978a5.89 5.89 0 0 1 1.53.398v6.338c-.546.145-1.056.435-1.53.724V26h5.32v-.905c-.29-.218-.728-.58-1.129-.725v-3.73c0-1.485.729-2.752 2.114-2.752 1.239 0 1.567 1.086 1.567 3.005 0 1.05-.037 2.5-.11 3.477-.4.145-.801.471-1.093.725V26h5.139zm8.928-12.422c0-.906-.984-1.847-2.77-1.847-2.66 0-3.717 1.34-3.717 4.092v.435h-1.64v1.449h1.64v6.591c-.583.145-1.166.47-1.567.724V26h5.831v-.978c-.473-.253-1.056-.543-1.64-.724v-6.555h2.442v-1.45h-2.442v-1.412c0-1.158.292-1.774.911-1.774.22 0 .365.036.474.18.255.327-.218 1.558 1.276 1.558.838.036 1.202-.47 1.202-1.231zm9.621 7.352c0-3.151-1.785-4.853-4.847-4.853-3.097 0-5.466 2.028-5.466 5.324 0 3.26 1.968 4.817 4.81 4.817 3.207-.037 5.503-2.029 5.503-5.288zm-2.769.29c0 2.245-.838 3.26-2.223 3.26-1.604 0-2.551-1.413-2.551-3.514 0-2.137.801-3.223 2.223-3.223 1.64 0 2.551 1.412 2.551 3.477zm12.828-5.107v-3.187h-8.965v.942c.473.253 1.057.58 1.567.76v9.67c-.583.145-1.094.435-1.567.724V26h5.904v-.978c-.511-.29-1.057-.58-1.64-.724v-4.129h2.259c.109.435.401.87.62 1.195h1.129v-3.73h-1.129c-.183.326-.474.76-.62 1.195h-2.259v-4.382h2.733c.109.543.401 1.195.656 1.738zm6.851 9.887v-.978c-.437-.253-.875-.543-1.421-.724v-8.113c-1.458-.036-3.025.073-4.155.363v1.014a5.89 5.89 0 0 1 1.531.398v6.338c-.583.145-1.057.435-1.531.724V26h5.576zm-1.13-12.422c0-.797-.729-1.449-1.567-1.449-.801 0-1.567.652-1.567 1.485 0 .797.729 1.449 1.567 1.449.838-.037 1.567-.688 1.567-1.485zm13.667 12.422v-.978c-.365-.253-.839-.543-1.385-.724a73.89 73.89 0 0 0 .109-4.02c0-2.825-1.057-4.201-3.207-4.201-1.64 0-2.843.797-3.353 1.92l-.036-.037c.073-.47.109-1.268.109-1.775-1.348-.036-2.952.11-4.045.399v.978a5.9 5.9 0 0 1 1.531.398v6.338c-.547.145-1.057.435-1.531.724V26h5.248v-.905c-.292-.218-.729-.58-1.13-.725v-3.73c0-1.485.729-2.752 2.114-2.752 1.239 0 1.567 1.086 1.567 3.005 0 1.05-.037 2.5-.11 3.477-.4.145-.801.471-1.093.725V26h5.212zm4.883-1.702V11.84c-1.385-.072-2.988.109-4.045.362v1.014c.51.11 1.057.254 1.421.435v10.72c-.51.181-.984.435-1.421.725v.941h5.503v-.978c-.365-.253-.948-.58-1.458-.724zm11.88.543-.218-1.05h-.948c-.145-.398-.182-.724-.182-1.159V18.83c0-1.702-1.057-2.752-3.863-2.752-2.259.253-4.045 1.376-4.045 2.1 0 .688.364 1.268 1.239 1.268 1.895 0 .692-1.956 2.15-1.956 1.203 0 1.895.724 1.895 1.992v.905c-2.77.11-5.43 1.268-5.43 2.753 0 1.956 1.057 3.115 2.405 3.115 1.167 0 2.187-.363 3.28-1.485h.037c.073.326.291 1.014.546 1.52 1.057-.253 2.333-.76 3.134-1.412zm-3.972-2.281c0 .941-1.166 1.883-1.968 1.883-.437 0-.874-.543-.874-1.594 0-.688.838-1.231 2.879-1.376v1.087zm16.728 3.44v-.978c-.365-.253-.839-.543-1.385-.724a73.89 73.89 0 0 0 .109-4.02c0-2.825-1.057-4.201-3.207-4.201-1.64 0-2.842.797-3.353 1.92l-.036-.037c.073-.47.109-1.268.109-1.775-1.348-.036-2.952.11-4.045.399v.978a5.9 5.9 0 0 1 1.531.398v6.338c-.547.145-1.057.435-1.531.724V26h5.248v-.905c-.292-.218-.729-.58-1.13-.725v-3.73c0-1.485.729-2.752 2.114-2.752 1.239 0 1.567 1.086 1.567 3.005 0 1.05-.037 2.5-.109 3.477-.401.145-.802.471-1.094.725V26h5.212zm11.297-.29v-1.014c-.51-.108-.984-.29-1.385-.434V11.839c-1.458-.072-3.061.073-4.118.362v1.014c.547.11 1.093.254 1.531.435v2.608c-.474-.073-.875-.073-1.276-.073-3.207 0-5.32 2.028-5.32 5.469 0 2.753 1.421 4.6 3.717 4.6 1.53 0 2.66-.906 3.097-1.992l.037.036c-.109.507-.109 1.267-.109 1.81 1.494.037 2.769-.108 3.826-.361zm-3.972-4.128c0 1.593-.875 2.825-1.895 2.825-1.276 0-1.968-1.34-1.968-3.151 0-2.427.911-3.694 2.296-3.694.656 0 1.202.18 1.567.434zm6.851 1.63c-.838 0-1.531.688-1.531 1.52 0 .797.693 1.486 1.531 1.486s1.531-.689 1.531-1.522c0-.833-.693-1.484-1.531-1.484zm10.897-9.634c0-.906-.984-1.847-2.77-1.847-.328 0-.474.036-.729.072-2.004.29-2.843 1.594-2.843 4.056v.435h-1.639v1.449h1.639v6.591c-.583.145-1.166.471-1.567.725v.941h5.831v-.978c-.473-.253-1.057-.543-1.64-.724v-6.591h2.442v-1.45h-2.478v-1.412c0-.796.109-1.34.401-1.593.109-.109.218-.145.401-.145.218 0 .328.036.437.181.255.326-.219 1.557 1.276 1.557.874 0 1.239-.507 1.239-1.267zm5.43 12.422v-.978c-.438-.253-.875-.543-1.422-.724v-8.113c-1.457-.036-2.624.037-3.753.326v1.087c.255.072.692.217 1.129.362v6.338c-.546.145-1.056.435-1.53.724V26h5.576zm-1.13-12.422c0-.797-.729-1.449-1.567-1.449-.802 0-1.567.652-1.567 1.485 0 .797.729 1.449 1.567 1.449.838-.037 1.567-.688 1.567-1.485z" style="fill:#000"/><path d="M63.748 18.69c-2.186.072-3.826-1.847-3.9-3.586-.072-2.064 1.568-3.875 3.609-3.947 2.04-.073 3.826 1.63 3.9 3.621.072 2.21-1.64 3.803-3.609 3.912Z" fill="#F08200"/><path d="M15.607 27.744c-1.312-1.195-2.66-2.354-4.118-2.499-2.005-.18-3.353 1.232-3.645 2.897-.583 3.405 6.524 10.322 12.209 12.206 1.676.543 3.353-.109 3.571-1.304.474-2.463-6.56-9.996-8.017-11.3Z" fill="#ED3621"/><path d="M20.525 17.997c-.072-1.557-1.384-2.97-3.17-2.897-1.64.072-2.989 1.376-2.916 3.114.073 1.485 1.385 3.006 3.134 2.934 1.677-.072 3.025-1.485 2.952-3.15zm9.403-2.933c-.292-2.246.073-5.397-4.373-5.216-2.223.073-3.973 1.956-3.426 3.948.364 1.304.875 3.115.947 5.034.146 3.875-3.243 2.934-3.134 5.577.037 1.268 4.957 9.344 7.253 10.793.328.217 3.826 2.608 4.591-2.245.766-4.78-1.567-15.61-1.858-17.891zM23.915 7.53c-2.187.073-3.827-1.847-3.9-3.585-.073-2.064 1.567-3.875 3.608-3.948 2.04-.072 3.827 1.63 3.9 3.622a3.752 3.752 0 0 1-3.608 3.911z" style="fill:#00a3e8"/><path d="M7.59 21.292c.145-1.956-1.24-3.875-3.5-4.056-2.04-.145-3.899 1.267-4.08 3.44-.146 1.847 1.275 3.948 3.425 4.093 2.114.145 4.009-1.413 4.154-3.477z" style="fill:#ed3621"/><path d="M61.304 24.593c.22-2.499-1.858-5.758-5.284-4.382-3.426 1.376-11.042 15.682-10.75 18.109.182 1.412 1.603 2.136 2.805 1.847 1.203-.29 4.665-2.97 6.269-4.926 1.385-1.738 6.45-5.432 6.96-10.648Z" fill="#F08200"/><path d="M45.198 24.081c.656-2.137 2.478-7.098.146-9.923-2.369-2.825-6.159-.326-6.778 2.571-.401 1.775-3.572 14.74-1.786 17.13.874 1.16 2.733.906 4.154-.398 1.75-1.666 3.754-7.786 4.264-9.38zm.255-14.523c-2.186.109-3.863-1.774-3.972-3.513-.11-2.064 1.494-3.911 3.535-4.02 2.04-.109 3.863 1.557 3.972 3.55.146 2.209-1.567 3.874-3.535 3.983z" style="fill:#129942"/></svg>