<svg xmlns="http://www.w3.org/2000/svg" width="134" height="27" fill="none"><path d="M53.69 19.524v-.651c-.29-.169-.579-.362-.94-.483v-5.402c-.965-.024-2.002.048-2.75.24v.676a3.88 3.88 0 0 1 1.013.266v4.22c-.386.097-.7.29-1.013.483v.627h3.69zm-.747-8.273c0-.53-.483-.965-1.038-.965-.53 0-1.037.434-1.037.99 0 .53.483.964 1.037.964.555-.024 1.038-.458 1.038-.989zm9.069 8.273v-.651a4.09 4.09 0 0 0-.917-.482c.048-.82.072-1.858.072-2.678 0-1.881-.7-2.798-2.122-2.798-1.085 0-1.881.531-2.22 1.279l-.023-.024c.048-.314.072-.845.072-1.182-.892-.024-1.954.072-2.677.265v.651c.386.049.723.145 1.013.266v4.22c-.362.097-.7.29-1.013.483v.627h3.521v-.603c-.193-.145-.482-.386-.747-.482V15.93c0-.989.482-1.833 1.399-1.833.82 0 1.037.724 1.037 2.002 0 .7-.024 1.664-.073 2.316-.265.096-.53.313-.723.482v.603h3.4zm5.909-8.273c0-.603-.651-1.23-1.833-1.23-1.76 0-2.46.892-2.46 2.725v.29h-1.086V14h1.086v4.39c-.386.096-.772.313-1.037.482v.627h3.859v-.651a6.406 6.406 0 0 0-1.086-.483v-4.365h1.616v-.965h-1.616v-.94c0-.773.193-1.183.603-1.183.145 0 .241.024.314.121.169.217-.145 1.037.844 1.037.555.024.796-.313.796-.82zm6.367 4.896c0-2.098-1.181-3.232-3.207-3.232-2.05 0-3.618 1.351-3.618 3.546 0 2.17 1.302 3.208 3.183 3.208 2.123-.024 3.643-1.35 3.643-3.522zm-1.833.193c0 1.496-.554 2.171-1.47 2.171-1.062 0-1.69-.94-1.69-2.34 0-1.423.531-2.146 1.472-2.146 1.085 0 1.688.94 1.688 2.315zm8.49-3.4v-2.123h-5.933v.627c.314.169.7.386 1.037.507v6.44c-.386.096-.723.289-1.037.482v.627h3.908v-.651c-.338-.193-.7-.386-1.086-.483v-2.75h1.496c.072.29.265.58.41.797h.747v-2.485h-.747c-.121.217-.314.507-.41.796h-1.496v-2.918h1.81c.071.362.264.796.433 1.158zm4.535 6.584v-.651c-.29-.169-.579-.362-.94-.482v-5.403c-.965-.024-2.003.048-2.75.24v.676a3.88 3.88 0 0 1 1.013.266v4.22c-.386.097-.7.29-1.013.483v.627h3.69zm-.748-8.273c0-.53-.482-.965-1.037-.965-.53 0-1.037.434-1.037.99 0 .53.483.964 1.037.964.555-.024 1.037-.458 1.037-.989zm9.045 8.273v-.651a3.623 3.623 0 0 0-.916-.482c.048-.82.072-1.858.072-2.678 0-1.881-.7-2.798-2.123-2.798-1.085 0-1.88.531-2.219 1.279l-.024-.024c.049-.314.073-.845.073-1.182-.893-.024-1.954.072-2.678.265v.651a3.88 3.88 0 0 1 1.013.266v4.22c-.361.097-.699.29-1.012.483v.627h3.473v-.603c-.193-.145-.483-.386-.748-.482V15.93c0-.989.482-1.833 1.399-1.833.82 0 1.037.724 1.037 2.002 0 .7-.024 1.664-.072 2.316-.266.096-.53.313-.724.482v.603h3.45zm3.232-1.133v-8.322a10.237 10.237 0 0 0-2.677.241v.676c.338.072.7.169.94.29v7.139a4.33 4.33 0 0 0-.94.482v.627h3.642v-.651c-.241-.169-.627-.386-.965-.483Zm7.863.361-.144-.7h-.627a2.062 2.062 0 0 1-.121-.771v-2.557c0-1.133-.7-1.833-2.557-1.833-1.495.17-2.677.917-2.677 1.4 0 .457.241.843.82.843 1.254 0 .458-1.302 1.423-1.302.796 0 1.254.482 1.254 1.327v.602c-1.833.073-3.594.845-3.594 1.834 0 1.302.7 2.074 1.592 2.074.772 0 1.448-.241 2.17-.99h.025c.049.218.193.676.362 1.014.7-.169 1.544-.506 2.074-.94zm-2.63-1.52c0 .628-.77 1.255-1.301 1.255-.29 0-.58-.362-.58-1.061 0-.459.556-.82 1.906-.917v.724zm11.072 2.292v-.651a3.613 3.613 0 0 0-.916-.482c.048-.82.072-1.858.072-2.678 0-1.881-.7-2.798-2.122-2.798-1.086 0-1.882.531-2.22 1.279l-.024-.024c.049-.314.073-.845.073-1.182-.893-.024-1.954.072-2.677.265v.651c.385.049.723.145 1.013.266v4.22c-.362.097-.7.29-1.013.483v.627h3.473v-.603c-.193-.145-.483-.386-.748-.482V15.93c0-.989.482-1.833 1.399-1.833.82 0 1.037.724 1.037 2.002 0 .7-.024 1.664-.072 2.316-.266.096-.531.313-.724.482v.603h3.449zm7.477-.193v-.675c-.337-.072-.651-.193-.916-.29V10.07c-.965-.048-2.026.048-2.726.241v.676c.362.072.724.169 1.013.29v1.736c-.313-.048-.578-.048-.844-.048-2.122 0-3.521 1.35-3.521 3.642 0 1.833.94 3.063 2.46 3.063 1.013 0 1.76-.603 2.05-1.327l.024.024c-.072.338-.072.845-.072 1.206.989.025 1.833-.072 2.532-.24zm-2.63-2.75c0 1.062-.577 1.882-1.253 1.882-.844 0-1.302-.893-1.302-2.099 0-1.616.603-2.46 1.519-2.46.434 0 .796.12 1.037.29zm4.536 1.086c-.555 0-1.013.458-1.013 1.013 0 .53.458.989 1.013.989.555 0 1.013-.458 1.013-1.013a.999.999 0 0 0-1.013-.99zm7.212-6.416c0-.603-.652-1.23-1.833-1.23-.217 0-.314.024-.483.048-1.326.193-1.881 1.061-1.881 2.702v.29h-1.086v.964h1.086v4.39c-.386.096-.772.313-1.037.482v.627h3.859v-.651a6.432 6.432 0 0 0-1.086-.483V14h1.616v-.964h-1.64v-.94c0-.531.073-.893.266-1.062.072-.072.144-.097.265-.097.145 0 .217.025.289.121.169.217-.144 1.037.845 1.037.578 0 .82-.337.82-.844zm3.594 8.273v-.651c-.29-.169-.58-.362-.941-.483v-5.402c-.965-.024-1.737.024-2.484.217v.723c.168.049.458.145.747.242v4.22c-.362.097-.7.29-1.013.483v.627h3.69zm-.748-8.273c0-.53-.483-.965-1.037-.965-.531 0-1.037.434-1.037.99 0 .53.482.964 1.037.964.554-.024 1.037-.458 1.037-.989z" style="fill:#000"/><path d="M42.096 12.447c-1.447.048-2.532-1.23-2.58-2.388-.049-1.375 1.036-2.58 2.387-2.629 1.35-.048 2.533 1.086 2.58 2.412.05 1.471-1.084 2.533-2.387 2.605Z" fill="#F08200"/><path d="M10.234 18.477c-.869-.796-1.761-1.568-2.726-1.664-1.326-.12-2.219.82-2.412 1.93-.386 2.267 4.318 6.873 8.08 8.128 1.11.361 2.22-.073 2.364-.869.314-1.64-4.341-6.657-5.306-7.525Z" fill="#ED3621"/><path d="M13.586 11.989c-.048-1.037-.917-1.978-2.098-1.93-1.086.049-1.978.917-1.93 2.075.048.989.917 2.002 2.074 1.953 1.11-.048 2.002-.989 1.954-2.098Zm6.223-1.954c-.193-1.495.048-3.594-2.895-3.473-1.47.048-2.629 1.303-2.267 2.63.242.867.58 2.073.627 3.352.097 2.58-2.146 1.953-2.074 3.714.024.844 3.28 6.223 4.8 7.188.217.145 2.532 1.736 3.039-1.496.506-3.183-1.037-10.395-1.23-11.915Zm-3.98-5.017c-1.447.049-2.532-1.23-2.58-2.387C13.2 1.256 14.285.05 15.635 0c1.35-.048 2.533 1.086 2.581 2.412a2.492 2.492 0 0 1-2.388 2.605Z" fill="#00A3E8"/><path d="M5.024 14.183c.096-1.302-.82-2.58-2.316-2.701-1.35-.097-2.58.844-2.701 2.291-.097 1.23.844 2.63 2.267 2.726 1.399.096 2.653-.94 2.75-2.316Z" fill="#ED3621"/><path d="M40.48 16.379c.144-1.664-1.23-3.835-3.498-2.919-2.267.917-7.308 10.444-7.115 12.06.12.94 1.061 1.423 1.857 1.23.796-.193 3.088-1.977 4.149-3.28.916-1.158 4.269-3.618 4.607-7.091Z" fill="#F08200"/><path d="M29.915 16.04c.434-1.422 1.64-4.727.097-6.608-1.568-1.881-4.076-.217-4.486 1.713-.266 1.181-2.364 9.816-1.182 11.408.578.772 1.809.603 2.75-.265 1.157-1.11 2.484-5.186 2.821-6.247Zm.17-9.671c-1.448.072-2.558-1.182-2.63-2.34-.072-1.375.989-2.605 2.34-2.677 1.35-.072 2.556 1.037 2.629 2.364a2.482 2.482 0 0 1-2.34 2.653Z" fill="#129942"/></svg>