<svg width="155" height="32" viewBox="0 0 155 32" fill="none" xmlns="http://www.w3.org/2000/svg">
<path d="M61.8481 22.4713V21.7233C61.5136 21.5293 61.179 21.3077 60.7608 21.1691V14.963C59.6457 14.9353 58.4469 15.0184 57.5826 15.2401V16.0158C58.0287 16.0712 58.419 16.1821 58.7535 16.3206V21.1691C58.3075 21.28 57.945 21.5016 57.5826 21.7233V22.4436H61.8481V22.4713ZM60.9839 12.9682C60.9839 12.3586 60.4263 11.8599 59.7851 11.8599C59.1717 11.8599 58.5863 12.3586 58.5863 12.9959C58.5863 13.6054 59.1438 14.1041 59.7851 14.1041C60.4263 14.0764 60.9839 13.5777 60.9839 12.9682ZM71.4664 22.4713V21.7233C71.1876 21.5293 70.7973 21.3077 70.407 21.1691C70.4628 20.2271 70.4906 19.0358 70.4906 18.0938C70.4906 15.9327 69.6822 14.8799 68.0373 14.8799C66.7827 14.8799 65.8627 15.4894 65.4724 16.3483L65.4445 16.3206C65.5003 15.9604 65.5282 15.3509 65.5282 14.963C64.4966 14.9353 63.27 15.0461 62.4336 15.2678V16.0158C62.8796 16.0712 63.27 16.1821 63.6045 16.3206V21.1691C63.1863 21.28 62.796 21.5016 62.4336 21.7233V22.4436H66.5039V21.751C66.2809 21.5847 65.9463 21.3077 65.6397 21.1968V18.3431C65.6397 17.2072 66.1973 16.2375 67.2567 16.2375C68.2046 16.2375 68.4555 17.0687 68.4555 18.5371C68.4555 19.3405 68.4276 20.4488 68.3718 21.1968C68.0652 21.3077 67.7585 21.557 67.5355 21.751V22.4436H71.4664V22.4713ZM78.2968 12.9682C78.2968 12.2755 77.5441 11.5552 76.178 11.5552C74.1428 11.5552 73.3343 12.5803 73.3343 14.6859V15.0184H72.0798V16.1267H73.3343V21.1691C72.8883 21.28 72.4422 21.5293 72.1355 21.7233V22.4436H76.5962V21.6956C76.2337 21.5016 75.7877 21.28 75.3416 21.1414V16.1267H77.2095V15.0184H75.3416V13.9379C75.3416 13.0513 75.5646 12.5803 76.0386 12.5803C76.2059 12.5803 76.3174 12.608 76.401 12.7188C76.5962 12.9682 76.2337 13.9102 77.3768 13.9102C78.018 13.9379 78.2968 13.55 78.2968 12.9682ZM85.6569 18.5925C85.6569 16.1821 84.2908 14.8799 81.949 14.8799C79.5792 14.8799 77.7671 16.4314 77.7671 18.9527C77.7671 21.4462 79.2726 22.6376 81.4471 22.6376C83.9005 22.6099 85.6569 21.086 85.6569 18.5925ZM83.5381 18.8141C83.5381 20.5319 82.8969 21.3077 81.8375 21.3077C80.6108 21.3077 79.8859 20.2271 79.8859 18.6202C79.8859 16.9855 80.4993 16.1544 81.5865 16.1544C82.8411 16.1544 83.5381 17.2349 83.5381 18.8141ZM93.3515 14.9076V12.4695H86.4933V13.1898C86.8557 13.3838 87.3018 13.6331 87.6921 13.7717V21.1691C87.246 21.28 86.8557 21.5016 86.4933 21.7233V22.4436H91.0097V21.6956C90.6194 21.4739 90.2012 21.2523 89.7551 21.1414V17.983H91.4836C91.5673 18.3154 91.7903 18.6479 91.9576 18.8973H92.8218V16.0435H91.9576C91.8182 16.2929 91.5951 16.6254 91.4836 16.9578H89.7551V13.6054H91.8461C91.9297 14.021 92.1527 14.5197 92.3479 14.9353L93.3515 14.9076ZM98.5928 22.4713V21.7233C98.2583 21.5293 97.9237 21.3077 97.5055 21.1691V14.963C96.3904 14.9353 95.1915 15.0184 94.3273 15.2401V16.0158C94.7734 16.0712 95.1637 16.1821 95.4982 16.3206V21.1691C95.0522 21.28 94.6897 21.5016 94.3273 21.7233V22.4436H98.5928V22.4713ZM97.7285 12.9682C97.7285 12.3586 97.171 11.8599 96.5298 11.8599C95.9164 11.8599 95.3309 12.3586 95.3309 12.9959C95.3309 13.6054 95.8885 14.1041 96.5298 14.1041C97.171 14.0764 97.7285 13.5777 97.7285 12.9682ZM108.183 22.4713V21.7233C107.904 21.5293 107.542 21.3077 107.124 21.1691C107.18 20.2271 107.207 19.0358 107.207 18.0938C107.207 15.9327 106.399 14.8799 104.754 14.8799C103.5 14.8799 102.58 15.4894 102.189 16.3483L102.161 16.3206C102.217 15.9604 102.245 15.3509 102.245 14.963C101.213 14.9353 99.9868 15.0461 99.1504 15.2678V16.0158C99.5965 16.0712 99.9868 16.1821 100.321 16.3206V21.1691C99.9031 21.28 99.5128 21.5016 99.1504 21.7233V22.4436H103.165V21.751C102.942 21.5847 102.607 21.3077 102.301 21.1968V18.3431C102.301 17.2072 102.858 16.2375 103.918 16.2375C104.866 16.2375 105.117 17.0687 105.117 18.5371C105.117 19.3405 105.089 20.4488 105.033 21.1968C104.726 21.3077 104.42 21.557 104.197 21.751V22.4436H108.183V22.4713ZM111.919 21.1691V11.6106C110.86 11.5552 109.633 11.6937 108.824 11.8876V12.6634C109.215 12.7465 109.633 12.8574 109.912 12.9959V21.1968C109.521 21.3354 109.159 21.5293 108.824 21.751V22.4713H113.034V21.7233C112.755 21.5293 112.309 21.28 111.919 21.1691ZM121.008 21.5847L120.84 20.7813H120.115C120.004 20.4765 119.976 20.2271 119.976 19.8947V16.9578C119.976 15.6557 119.168 14.8522 117.021 14.8522C115.292 15.0461 113.926 15.905 113.926 16.4591C113.926 16.9855 114.205 17.4288 114.874 17.4288C116.324 17.4288 115.404 15.9327 116.519 15.9327C117.439 15.9327 117.969 16.4868 117.969 17.4565V18.1492C115.85 18.2323 113.815 19.1189 113.815 20.2548C113.815 21.751 114.623 22.6376 115.655 22.6376C116.547 22.6376 117.328 22.3605 118.164 21.5016H118.192C118.248 21.751 118.415 22.2774 118.61 22.6653C119.419 22.4713 120.394 22.0834 121.008 21.5847ZM117.969 19.8393C117.969 20.5596 117.077 21.28 116.463 21.28C116.129 21.28 115.794 20.8644 115.794 20.0609C115.794 19.5345 116.435 19.1189 117.997 19.0081V19.8393H117.969ZM130.765 22.4713V21.7233C130.487 21.5293 130.124 21.3077 129.706 21.1691C129.762 20.2271 129.79 19.0358 129.79 18.0938C129.79 15.9327 128.981 14.8799 127.336 14.8799C126.082 14.8799 125.162 15.4894 124.771 16.3483L124.743 16.3206C124.799 15.9604 124.827 15.3509 124.827 14.963C123.796 14.9353 122.569 15.0461 121.732 15.2678V16.0158C122.179 16.0712 122.569 16.1821 122.903 16.3206V21.1691C122.485 21.28 122.095 21.5016 121.732 21.7233V22.4436H125.747V21.751C125.524 21.5847 125.189 21.3077 124.883 21.1968V18.3431C124.883 17.2072 125.44 16.2375 126.5 16.2375C127.448 16.2375 127.699 17.0687 127.699 18.5371C127.699 19.3405 127.671 20.4488 127.615 21.1968C127.308 21.3077 127.002 21.557 126.779 21.751V22.4436H130.765V22.4713ZM139.408 22.2497V21.4739C139.018 21.3908 138.655 21.2523 138.348 21.1414V11.6106C137.233 11.5552 136.007 11.666 135.198 11.8876V12.6634C135.616 12.7465 136.034 12.8574 136.369 12.9959V14.9907C136.007 14.9353 135.7 14.9353 135.393 14.9353C132.94 14.9353 131.323 16.4868 131.323 19.1189C131.323 21.2246 132.41 22.6376 134.167 22.6376C135.337 22.6376 136.202 21.9449 136.536 21.1137L136.564 21.1414C136.481 21.5293 136.481 22.1111 136.481 22.5267C137.624 22.5544 138.599 22.4436 139.408 22.2497ZM136.369 19.0912C136.369 20.3103 135.7 21.2523 134.919 21.2523C133.944 21.2523 133.414 20.2271 133.414 18.8418C133.414 16.9855 134.111 16.0158 135.17 16.0158C135.672 16.0158 136.09 16.1544 136.369 16.3483V19.0912ZM141.61 20.338C140.969 20.338 140.439 20.8644 140.439 21.5016C140.439 22.1111 140.969 22.6376 141.61 22.6376C142.252 22.6376 142.781 22.1111 142.781 21.4739C142.781 20.8367 142.252 20.338 141.61 20.338ZM149.946 12.9682C149.946 12.2755 149.193 11.5552 147.827 11.5552C147.576 11.5552 147.465 11.5829 147.27 11.6106C145.736 11.8322 145.095 12.8297 145.095 14.7137V15.0461H143.841V16.1544H145.095V21.1968C144.649 21.3077 144.203 21.557 143.896 21.751V22.4713H148.357V21.7233C147.995 21.5293 147.549 21.3077 147.102 21.1691V16.1267H148.97V15.0184H147.075V13.9379C147.075 13.3284 147.158 12.9128 147.381 12.7188C147.465 12.6357 147.549 12.608 147.688 12.608C147.855 12.608 147.939 12.6357 148.022 12.7465C148.218 12.9959 147.855 13.9379 148.998 13.9379C149.667 13.9379 149.946 13.55 149.946 12.9682ZM154.1 22.4713V21.7233C153.766 21.5293 153.431 21.3077 153.013 21.1691V14.963C151.898 14.9353 151.006 14.9907 150.141 15.2124V16.0435C150.336 16.099 150.671 16.2098 151.006 16.3206V21.1691C150.587 21.28 150.197 21.5016 149.835 21.7233V22.4436H154.1V22.4713ZM153.236 12.9682C153.236 12.3586 152.678 11.8599 152.037 11.8599C151.424 11.8599 150.838 12.3586 150.838 12.9959C150.838 13.6054 151.396 14.1041 152.037 14.1041C152.678 14.0764 153.236 13.5777 153.236 12.9682Z" fill="black"/>
<path d="M48.8007 14.298C47.128 14.3534 45.8734 12.885 45.8177 11.5551C45.7619 9.97586 47.0165 8.59057 48.5777 8.53515C50.1389 8.47974 51.505 9.78192 51.5608 11.3057C51.6165 12.9958 50.3062 14.2149 48.8007 14.298Z" fill="#F08200"/>
<path d="M11.9727 21.2245C10.9691 20.3102 9.93757 19.4236 8.8224 19.3128C7.28905 19.1743 6.25752 20.2548 6.03449 21.5293C5.58842 24.1336 11.0249 29.4255 15.374 30.8662C16.6564 31.2818 17.9389 30.783 18.1061 29.8688C18.4686 27.9847 13.0879 22.2219 11.9727 21.2245Z" fill="#ED3621"/>
<path d="M15.8477 13.7716C15.792 12.5802 14.7883 11.4997 13.4222 11.5551C12.1677 11.6105 11.1362 12.6079 11.1919 13.9378C11.2477 15.0737 12.2513 16.2374 13.5895 16.182C14.872 16.1266 15.9035 15.046 15.8477 13.7716ZM23.0405 11.5274C22.8175 9.80962 23.0963 7.3992 19.6951 7.53773C17.9944 7.59314 16.6562 9.03385 17.0744 10.5577C17.3532 11.5551 17.7435 12.9404 17.7993 14.4088C17.9108 17.3733 15.318 16.653 15.4017 18.6755C15.4295 19.6452 19.1932 25.8237 20.9496 26.9319C21.2005 27.0981 23.8769 28.9267 24.4624 25.2141C25.0478 21.5569 23.2636 13.2729 23.0405 11.5274ZM18.4405 5.76455C16.7677 5.81996 15.5132 4.35154 15.4574 3.02166C15.4017 1.44242 16.6562 0.057118 18.2175 0.00170606C19.7787 -0.0537059 21.1448 1.24847 21.2005 2.7723C21.2563 4.46237 19.946 5.70913 18.4405 5.76455Z" fill="#00A3E8"/>
<path d="M5.95044 16.2927C6.06196 14.7966 5.00255 13.3282 3.27405 13.1897C1.71282 13.0789 0.290979 14.1594 0.151584 15.8217C0.0400673 17.2347 1.12735 18.8417 2.77222 18.9525C4.38921 19.0633 5.83892 17.872 5.95044 16.2927Z" fill="#ED3621"/>
<path d="M46.9326 18.8141C47.0999 16.9024 45.5108 14.4089 42.8901 15.4617C40.2695 16.5145 34.4428 27.4584 34.6658 29.3147C34.8052 30.3952 35.8925 30.9494 36.8125 30.7277C37.7325 30.5061 40.381 28.4558 41.6077 26.9597C42.6671 25.6298 46.5423 22.8038 46.9326 18.8141Z" fill="#F08200"/>
<path d="M34.721 18.4261C35.2228 16.7914 36.6168 12.9957 34.8325 10.8347C33.0204 8.6736 30.121 10.5853 29.647 12.8018C29.3403 14.1594 26.9149 24.0781 28.2809 25.9067C28.95 26.7933 30.3719 26.5994 31.4592 25.6019C32.7974 24.3275 34.3307 19.6452 34.721 18.4261ZM34.9162 7.31601C33.2434 7.39912 31.961 5.95841 31.8773 4.62853C31.7937 3.04929 33.0204 1.63628 34.5816 1.55317C36.1429 1.47005 37.5368 2.74452 37.6204 4.26835C37.732 5.95841 36.4216 7.23289 34.9162 7.31601Z" fill="#129942"/>
</svg>
