<?xml version="1.0" encoding="UTF-8" standalone="no"?>
<svg
   xmlns:dc="http://purl.org/dc/elements/1.1/"
   xmlns:cc="http://creativecommons.org/ns#"
   xmlns:rdf="http://www.w3.org/1999/02/22-rdf-syntax-ns#"
   xmlns:svg="http://www.w3.org/2000/svg"
   xmlns="http://www.w3.org/2000/svg"
   xmlns:sodipodi="http://sodipodi.sourceforge.net/DTD/sodipodi-0.dtd"
   xmlns:inkscape="http://www.inkscape.org/namespaces/inkscape"
   width="134"
   height="27"
   viewBox="0 0 134 27"
   fill="none"
   version="1.1"
   id="svg278"
   sodipodi:docname="logo-small.svg"
   inkscape:version="0.92.5 (2060ec1f9f, 2020-04-08)">
  <metadata
     id="metadata284">
    <rdf:RDF>
      <cc:Work
         rdf:about="">
        <dc:format>image/svg+xml</dc:format>
        <dc:type
           rdf:resource="http://purl.org/dc/dcmitype/StillImage" />
      </cc:Work>
    </rdf:RDF>
  </metadata>
  <defs
     id="defs282" />
  <sodipodi:namedview
     pagecolor="#ffffff"
     bordercolor="#666666"
     borderopacity="1"
     objecttolerance="10"
     gridtolerance="10"
     guidetolerance="10"
     inkscape:pageopacity="0"
     inkscape:pageshadow="2"
     inkscape:window-width="2560"
     inkscape:window-height="1375"
     id="namedview280"
     showgrid="true"
     inkscape:zoom="23.471724"
     inkscape:cx="62.992224"
     inkscape:cy="8.4451988"
     inkscape:window-x="0"
     inkscape:window-y="0"
     inkscape:window-maximized="1"
     inkscape:current-layer="svg278">
    <inkscape:grid
       type="xygrid"
       id="grid286" />
  </sodipodi:namedview>
  <path
     d="M 53.6903,19.5241 V 18.8729 C 53.4008,18.7041 53.1114,18.5111 52.7496,18.3905 V 12.9877 C 51.7848,12.9636 50.7477,13.0359 50,13.2289 v 0.6753 c 0.3859,0.0483 0.7235,0.1448 1.013,0.2654 v 4.2209 C 50.6271,18.487 50.3135,18.6799 50,18.8729 V 19.5 h 3.6903 z m -0.7477,-8.273 c 0,-0.5307 -0.4824,-0.9648 -1.0372,-0.9648 -0.5306,0 -1.0371,0.4341 -1.0371,0.9889 0,0.5306 0.4824,0.9648 1.0371,0.9648 0.5548,-0.0241 1.0372,-0.4583 1.0372,-0.9889 z m 9.069,8.273 v -0.6512 c -0.2412,-0.1688 -0.5789,-0.3618 -0.9166,-0.4824 0.0483,-0.8201 0.0724,-1.8572 0.0724,-2.6773 0,-1.8813 -0.6995,-2.7979 -2.1226,-2.7979 -1.0853,0 -1.8813,0.5307 -2.219,1.2784 l -0.0241,-0.0241 c 0.0483,-0.3136 0.0724,-0.8442 0.0724,-1.1819 -0.8925,-0.0241 -1.9537,0.0724 -2.6773,0.2653 v 0.6512 c 0.3859,0.0483 0.7236,0.1448 1.013,0.2654 v 4.2209 c -0.3618,0.0965 -0.6995,0.2894 -1.013,0.4824 V 19.5 h 3.5215 v -0.603 c -0.193,-0.1447 -0.4824,-0.3859 -0.7477,-0.4824 v -2.4843 c 0,-0.9889 0.4824,-1.8331 1.3989,-1.8331 0.8201,0 1.0371,0.7236 1.0371,2.0019 0,0.6995 -0.0241,1.6643 -0.0723,2.3155 -0.2653,0.0965 -0.5306,0.3136 -0.7236,0.4824 V 19.5 h 3.4009 z m 5.9093,-8.273 c 0,-0.603 -0.6512,-1.2301 -1.8331,-1.2301 -1.7607,0 -2.4602,0.8924 -2.4602,2.7255 v 0.2894 h -1.0854 v 0.9648 h 1.0854 v 4.3898 c -0.3859,0.0965 -0.7718,0.3136 -1.0371,0.4824 V 19.5 h 3.8591 V 18.8488 C 66.136,18.6799 65.7501,18.487 65.3642,18.3664 v -4.3657 h 1.616 v -0.9648 h -1.616 v -0.9406 c 0,-0.7719 0.193,-1.1819 0.603,-1.1819 0.1447,0 0.2412,0.0241 0.3136,0.1206 0.1688,0.2171 -0.1448,1.0371 0.8442,1.0371 0.5547,0.0242 0.7959,-0.3135 0.7959,-0.82 z m 6.3676,4.8963 c 0,-2.0984 -1.1819,-3.2321 -3.2079,-3.2321 -2.0502,0 -3.618,1.3507 -3.618,3.5456 0,2.1708 1.3025,3.208 3.1838,3.208 2.1226,-0.0242 3.6421,-1.3507 3.6421,-3.5215 z m -1.8331,0.1929 c 0,1.4955 -0.5547,2.1708 -1.4713,2.1708 -1.0613,0 -1.6884,-0.9407 -1.6884,-2.3396 0,-1.4231 0.5307,-2.1467 1.4713,-2.1467 1.0854,0 1.6884,0.9407 1.6884,2.3155 z m 8.4902,-3.4008 v -2.1226 h -5.9335 v 0.6271 c 0.3136,0.1689 0.6995,0.3859 1.0372,0.5065 v 6.44 c -0.386,0.0965 -0.7236,0.2894 -1.0372,0.4824 V 19.5 h 3.9074 V 18.8488 C 78.5818,18.6558 78.22,18.4629 77.8341,18.3664 v -2.7497 h 1.4954 c 0.0724,0.2895 0.2653,0.5789 0.4101,0.796 h 0.7477 v -2.4843 h -0.7477 c -0.1206,0.217 -0.3136,0.5065 -0.4101,0.7959 h -1.4954 v -2.9185 h 1.809 c 0.0723,0.3618 0.2653,0.796 0.4341,1.1578 z m 4.5345,6.5846 v -0.6512 c -0.2895,-0.1688 -0.5789,-0.3618 -0.9407,-0.4824 v -5.4028 c -0.9648,-0.0241 -2.0019,0.0482 -2.7497,0.2412 v 0.6753 c 0.386,0.0483 0.7236,0.1448 1.0131,0.2654 v 4.2209 c -0.3859,0.0965 -0.6995,0.2894 -1.0131,0.4824 V 19.5 h 3.6904 z m -0.7478,-8.273 c 0,-0.5307 -0.4823,-0.9648 -1.0371,-0.9648 -0.5306,0 -1.0371,0.4341 -1.0371,0.9889 0,0.5306 0.4824,0.9648 1.0371,0.9648 0.5548,-0.0241 1.0371,-0.4583 1.0371,-0.9889 z m 9.0449,8.273 v -0.6512 c -0.2412,-0.1688 -0.5547,-0.3618 -0.9165,-0.4824 0.0482,-0.8201 0.0724,-1.8572 0.0724,-2.6773 0,-1.8813 -0.6995,-2.7979 -2.1226,-2.7979 -1.0854,0 -1.8813,0.5307 -2.219,1.2784 l -0.0241,-0.0241 c 0.0482,-0.3136 0.0723,-0.8442 0.0723,-1.1819 -0.8924,-0.0241 -1.9536,0.0724 -2.6772,0.2653 v 0.6512 c 0.3859,0.0483 0.7235,0.1448 1.013,0.2654 v 4.2209 c -0.3618,0.0965 -0.6995,0.2894 -1.013,0.4824 V 19.5 h 3.4732 v -0.603 c -0.193,-0.1447 -0.4824,-0.3859 -0.7477,-0.4824 v -2.4843 c 0,-0.9889 0.4824,-1.8331 1.3989,-1.8331 0.8201,0 1.0372,0.7236 1.0372,2.0019 0,0.6995 -0.0241,1.6643 -0.0724,2.3155 -0.2653,0.0965 -0.5306,0.3136 -0.7236,0.4824 V 19.5 h 3.4491 z m 3.2321,-1.1336 v -8.3213 c -0.9166,-0.0482 -1.9778,0.0724 -2.6773,0.2412 v 0.6754 c 0.3377,0.0723 0.6995,0.1688 0.9407,0.2894 v 7.1394 c -0.3377,0.1206 -0.6513,0.2895 -0.9407,0.4824 v 0.6271 h 3.6421 V 18.8729 C 97.7329,18.7041 97.347,18.487 97.0093,18.3905 Z m 7.8626,0.3618 -0.144,-0.6995 h -0.627 c -0.097,-0.2653 -0.121,-0.4824 -0.121,-0.7718 v -2.5567 c 0,-1.1336 -0.699,-1.8331 -2.557,-1.8331 -1.4951,0.1689 -2.677,0.9166 -2.677,1.399 0,0.4582 0.2412,0.8441 0.8201,0.8441 1.2539,0 0.4583,-1.3024 1.4229,-1.3024 0.796,0 1.254,0.4824 1.254,1.3266 v 0.603 c -1.833,0.0723 -3.5935,0.8442 -3.5935,1.8331 0,1.3024 0.6995,2.0743 1.5919,2.0743 0.7716,0 1.4476,-0.2412 2.1706,-0.989 h 0.024 c 0.049,0.2171 0.193,0.6754 0.362,1.0131 0.7,-0.1689 1.544,-0.5065 2.074,-0.9407 z m -2.629,-1.5195 c 0,0.6271 -0.771,1.2542 -1.302,1.2542 -0.29,0 -0.579,-0.3618 -0.579,-1.0613 0,-0.4583 0.555,-0.82 1.905,-0.9165 v 0.7236 z m 11.071,2.2913 v -0.6512 c -0.241,-0.1688 -0.554,-0.3618 -0.916,-0.4824 0.048,-0.8201 0.072,-1.8572 0.072,-2.6773 0,-1.8813 -0.699,-2.7979 -2.122,-2.7979 -1.086,0 -1.882,0.5307 -2.219,1.2784 l -0.025,-0.0241 c 0.049,-0.3136 0.073,-0.8442 0.073,-1.1819 -0.893,-0.0241 -1.954,0.0724 -2.677,0.2653 v 0.6512 c 0.385,0.0483 0.723,0.1448 1.013,0.2654 v 4.2209 c -0.362,0.0965 -0.7,0.2894 -1.013,0.4824 V 19.5 h 3.473 v -0.603 c -0.193,-0.1447 -0.483,-0.3859 -0.748,-0.4824 v -2.4843 c 0,-0.9889 0.482,-1.8331 1.399,-1.8331 0.82,0 1.037,0.7236 1.037,2.0019 0,0.6995 -0.024,1.6643 -0.072,2.3155 -0.266,0.0965 -0.531,0.3136 -0.724,0.4824 V 19.5 h 3.449 z m 7.477,-0.1929 v -0.6754 c -0.337,-0.0723 -0.651,-0.1929 -0.916,-0.2894 v -8.2972 c -0.965,-0.0482 -2.026,0.0482 -2.726,0.2412 v 0.6754 c 0.362,0.0723 0.724,0.1688 1.013,0.2894 v 1.7366 c -0.313,-0.0482 -0.578,-0.0482 -0.844,-0.0482 -2.122,0 -3.521,1.3507 -3.521,3.6421 0,1.8331 0.94,3.0632 2.46,3.0632 1.013,0 1.761,-0.603 2.05,-1.3266 l 0.024,0.0241 c -0.072,0.3377 -0.072,0.8442 -0.072,1.206 0.989,0.0241 1.833,-0.0724 2.532,-0.2412 z m -2.629,-2.7497 c 0,1.0613 -0.578,1.8814 -1.254,1.8814 -0.844,0 -1.302,-0.8925 -1.302,-2.0984 0,-1.6161 0.603,-2.4603 1.519,-2.4603 0.434,0 0.796,0.1206 1.037,0.2895 z m 4.535,1.0854 c -0.555,0 -1.013,0.4583 -1.013,1.013 0,0.5307 0.458,0.989 1.013,0.989 0.555,0 1.013,-0.4583 1.013,-1.0131 0,-0.5547 -0.458,-0.9889 -1.013,-0.9889 z m 7.212,-6.4158 c 0,-0.603 -0.652,-1.2301 -1.833,-1.2301 -0.217,0 -0.314,0.0241 -0.483,0.0482 -1.326,0.193 -1.881,1.0613 -1.881,2.7014 v 0.2895 h -1.086 v 0.9647 h 1.086 v 4.3898 c -0.386,0.0965 -0.772,0.3136 -1.037,0.4824 v 0.6271 h 3.859 v -0.6512 c -0.314,-0.1688 -0.7,-0.3618 -1.086,-0.4824 v -4.3898 h 1.616 v -0.9648 h -1.64 v -0.9406 c 0,-0.5307 0.073,-0.8925 0.266,-1.0613 0.072,-0.0724 0.144,-0.0965 0.265,-0.0965 0.145,0 0.217,0.0241 0.289,0.1206 0.169,0.2171 -0.144,1.0372 0.845,1.0372 0.578,0 0.82,-0.3377 0.82,-0.8442 z m 3.594,8.273 v -0.6512 c -0.29,-0.1688 -0.579,-0.3618 -0.941,-0.4824 v -5.4028 c -0.965,-0.0241 -1.737,0.0241 -2.484,0.2171 v 0.7236 c 0.168,0.0482 0.458,0.1447 0.747,0.2412 v 4.2209 c -0.362,0.0965 -0.699,0.2894 -1.013,0.4824 V 19.5 h 3.691 z m -0.748,-8.273 c 0,-0.5307 -0.483,-0.9648 -1.037,-0.9648 -0.531,0 -1.037,0.4341 -1.037,0.9889 0,0.5306 0.482,0.9648 1.037,0.9648 0.554,-0.0241 1.037,-0.4583 1.037,-0.9889 z"
     id="path264"
     inkscape:connector-curvature="0"
     style="fill:#000000" />
  <path
     d="M42.0961 12.4471C40.6489 12.4953 39.5635 11.217 39.5153 10.0592C39.467 8.68442 40.5524 7.47844 41.9031 7.4302C43.2538 7.38196 44.4357 8.51558 44.4839 9.84217C44.5322 11.3135 43.3986 12.3747 42.0961 12.4471Z"
     fill="#F08200"
     id="path266" />
  <path
     d="M10.2338 18.477C9.36545 17.681 8.47302 16.9092 7.50823 16.8127C6.18165 16.6921 5.28922 17.6328 5.09626 18.7423C4.71035 21.0095 9.41369 25.6164 13.1764 26.8706C14.2859 27.2324 15.3954 26.7983 15.5401 26.0023C15.8537 24.3622 11.1986 19.3453 10.2338 18.477Z"
     fill="#ED3621"
     id="path268" />
  <path
     d="M13.586 11.989C13.5378 10.9518 12.6695 10.0112 11.4876 10.0594C10.4022 10.1076 9.50978 10.976 9.55802 12.1337C9.60626 13.1226 10.4746 14.1356 11.6323 14.0874C12.7418 14.0392 13.6343 13.0985 13.586 11.989ZM19.8089 10.0353C19.6159 8.53986 19.8571 6.44145 16.9145 6.56205C15.4432 6.61029 14.2855 7.86451 14.6473 9.1911C14.8885 10.0594 15.2262 11.2654 15.2744 12.5437C15.3709 15.1245 13.1277 14.4974 13.2001 16.2582C13.2242 17.1024 16.4804 22.4811 17.9999 23.4459C18.217 23.5906 20.5325 25.1825 21.039 21.9504C21.5455 18.7666 20.0019 11.5548 19.8089 10.0353ZM15.8291 5.01839C14.382 5.06663 13.2966 3.78828 13.2483 2.63053C13.2001 1.25571 14.2855 0.0497247 15.6362 0.00148523C16.9869 -0.0467542 18.1688 1.08687 18.217 2.41346C18.2652 3.88476 17.1316 4.97015 15.8291 5.01839Z"
     fill="#00A3E8"
     id="path270" />
  <path
     d="M5.02369 14.1833C5.12017 12.8808 4.20362 11.6025 2.7082 11.4819C1.35749 11.3854 0.127387 12.3261 0.00678797 13.7733C-0.0896909 15.0034 0.850979 16.4023 2.27404 16.4988C3.67299 16.5953 4.92721 15.5581 5.02369 14.1833Z"
     fill="#ED3621"
     id="path272" />
  <path
     d="M40.4796 16.3788C40.6244 14.7146 39.2495 12.5438 36.9823 13.4604C34.715 14.3769 29.674 23.9042 29.867 25.5202C29.9876 26.4609 30.9282 26.9433 31.7242 26.7503C32.5201 26.5574 34.8115 24.7725 35.8728 23.47C36.7893 22.3123 40.142 19.8521 40.4796 16.3788Z"
     fill="#F08200"
     id="path274" />
  <path
     d="M29.9153 16.0409C30.3494 14.6178 31.5554 11.3134 30.0117 9.43209C28.444 7.55075 25.9355 9.21501 25.5255 11.1446C25.2602 12.3265 23.1617 20.9613 24.3436 22.5532C24.9225 23.325 26.1526 23.1562 27.0933 22.2879C28.251 21.1784 29.5776 17.1022 29.9153 16.0409ZM30.0841 6.36889C28.6369 6.44124 27.5274 5.18702 27.455 4.02927C27.3827 2.65445 28.444 1.42434 29.7947 1.35198C31.1454 1.27962 32.3513 2.38913 32.4237 3.71572C32.5202 5.18702 31.3866 6.29653 30.0841 6.36889Z"
     fill="#129942"
     id="path276" />
</svg>
