<?xml version="1.0" encoding="UTF-8" standalone="no"?>
<svg
   xmlns:dc="http://purl.org/dc/elements/1.1/"
   xmlns:cc="http://creativecommons.org/ns#"
   xmlns:rdf="http://www.w3.org/1999/02/22-rdf-syntax-ns#"
   xmlns:svg="http://www.w3.org/2000/svg"
   xmlns="http://www.w3.org/2000/svg"
   xmlns:sodipodi="http://sodipodi.sourceforge.net/DTD/sodipodi-0.dtd"
   xmlns:inkscape="http://www.inkscape.org/namespaces/inkscape"
   width="202"
   height="41"
   viewBox="0 0 202 41"
   fill="none"
   version="1.1"
   id="svg100"
   sodipodi:docname="logo-big.svg"
   inkscape:version="0.92.5 (2060ec1f9f, 2020-04-08)">
  <metadata
     id="metadata106">
    <rdf:RDF>
      <cc:Work
         rdf:about="">
        <dc:format>image/svg+xml</dc:format>
        <dc:type
           rdf:resource="http://purl.org/dc/dcmitype/StillImage" />
      </cc:Work>
    </rdf:RDF>
  </metadata>
  <defs
     id="defs104" />
  <sodipodi:namedview
     pagecolor="#ffffff"
     bordercolor="#666666"
     borderopacity="1"
     objecttolerance="10"
     gridtolerance="10"
     guidetolerance="10"
     inkscape:pageopacity="0"
     inkscape:pageshadow="2"
     inkscape:window-width="2560"
     inkscape:window-height="1375"
     id="namedview102"
     showgrid="true"
     inkscape:snap-global="false"
     inkscape:zoom="33.129003"
     inkscape:cx="63.011552"
     inkscape:cy="14.429476"
     inkscape:window-x="0"
     inkscape:window-y="0"
     inkscape:window-maximized="1"
     inkscape:current-layer="svg100">
    <inkscape:grid
       type="xygrid"
       id="grid108" />
  </sodipodi:namedview>
  <path
     d="M 80.5759,26.0363 V 25.0584 C 80.1385,24.8049 79.7012,24.5151 79.1546,24.3341 V 16.2215 C 77.6968,16.1853 76.1298,16.2939 75,16.5836 v 1.0141 c 0.5831,0.0725 1.0933,0.2173 1.5306,0.3984 v 6.338 C 75.9476,24.4789 75.4738,24.7687 75,25.0584 V 26 h 5.5759 z M 79.4461,13.6139 c 0,-0.7968 -0.7289,-1.4487 -1.5671,-1.4487 -0.8017,0 -1.567,0.6519 -1.567,1.4849 0,0.7967 0.7288,1.4486 1.567,1.4486 0.8382,-0.0362 1.5671,-0.6881 1.5671,-1.4848 z m 13.7027,12.4224 v -0.9779 c -0.3645,-0.2535 -0.8747,-0.5433 -1.3849,-0.7243 0.0729,-1.2314 0.1094,-2.7887 0.1094,-4.0201 0,-2.8249 -1.0569,-4.2012 -3.207,-4.2012 -1.64,0 -2.8426,0.7968 -3.3528,1.9195 L 85.277,17.9961 c 0.0729,-0.4708 0.1094,-1.2676 0.1094,-1.7746 -1.3484,-0.0362 -2.9519,0.1086 -4.0452,0.3984 v 0.9778 c 0.583,0.0725 1.0933,0.2173 1.5306,0.3984 v 6.338 c -0.5467,0.1448 -1.0569,0.4346 -1.5306,0.7243 V 26 h 5.3207 V 25.0946 C 86.3703,24.8773 85.933,24.5151 85.5321,24.3703 v -3.7304 c 0,-1.4849 0.7289,-2.7524 2.1138,-2.7524 1.239,0 1.567,1.0865 1.567,3.006 0,1.0502 -0.0364,2.4989 -0.1093,3.4768 -0.4009,0.1448 -0.8018,0.4708 -1.0933,0.7243 V 26 h 5.1385 z m 8.9282,-12.4224 c 0,-0.9055 -0.984,-1.8471 -2.7693,-1.8471 -2.6604,0 -3.7172,1.34 -3.7172,4.0925 v 0.4346 h -1.64 v 1.4487 h 1.64 v 6.5915 c -0.5831,0.1448 -1.1662,0.4708 -1.5671,0.7243 V 26 h 5.8306 v -0.9778 c -0.4734,-0.2535 -1.0565,-0.5433 -1.6396,-0.7244 v -6.5552 h 2.4416 v -1.4487 h -2.4416 v -1.4125 c 0,-1.1589 0.2915,-1.7746 0.9111,-1.7746 0.2186,0 0.3644,0.0362 0.4737,0.1811 0.2548,0.326 -0.2186,1.5573 1.2758,1.5573 0.838,0.0362 1.202,-0.4708 1.202,-1.2313 z m 9.621,7.352 c 0,-3.1509 -1.785,-4.8531 -4.847,-4.8531 -3.097,0 -5.466,2.0282 -5.466,5.3239 0,3.2595 1.968,4.8169 4.81,4.8169 3.207,-0.0363 5.503,-2.0282 5.503,-5.2877 z m -2.769,0.2897 c 0,2.2455 -0.838,3.2595 -2.223,3.2595 -1.604,0 -2.551,-1.4124 -2.551,-3.513 0,-2.1368 0.801,-3.2233 2.223,-3.2233 1.64,0 2.551,1.4125 2.551,3.4768 z m 12.828,-5.1066 v -3.187 h -8.965 v 0.9416 c 0.473,0.2535 1.057,0.5795 1.567,0.7605 v 9.67 c -0.583,0.1448 -1.094,0.4346 -1.567,0.7243 V 26 h 5.904 v -0.9778 c -0.511,-0.2897 -1.057,-0.5795 -1.64,-0.7244 v -4.1287 h 2.259 c 0.109,0.4346 0.401,0.8692 0.62,1.1952 h 1.129 v -3.7304 h -1.129 c -0.183,0.326 -0.474,0.7606 -0.62,1.1952 h -2.259 v -4.3823 h 2.733 c 0.109,0.5433 0.401,1.1952 0.656,1.7385 z m 6.851,9.8873 v -0.9779 c -0.437,-0.2535 -0.875,-0.5433 -1.421,-0.7243 v -8.1126 c -1.458,-0.0362 -3.025,0.0724 -4.155,0.3621 v 1.0141 c 0.583,0.0725 1.094,0.2173 1.531,0.3984 v 6.338 c -0.583,0.1448 -1.057,0.4346 -1.531,0.7243 V 26 h 5.576 z m -1.13,-12.4224 c 0,-0.7968 -0.729,-1.4487 -1.567,-1.4487 -0.801,0 -1.567,0.6519 -1.567,1.4849 0,0.7967 0.729,1.4486 1.567,1.4486 0.838,-0.0362 1.567,-0.6881 1.567,-1.4848 z m 13.667,12.4224 v -0.9779 c -0.365,-0.2535 -0.839,-0.5433 -1.385,-0.7243 0.073,-1.2314 0.109,-2.7887 0.109,-4.0201 0,-2.8249 -1.057,-4.2012 -3.207,-4.2012 -1.64,0 -2.843,0.7968 -3.353,1.9195 l -0.036,-0.0362 c 0.073,-0.4708 0.109,-1.2676 0.109,-1.7746 -1.348,-0.0362 -2.952,0.1086 -4.045,0.3984 v 0.9778 c 0.583,0.0725 1.093,0.2173 1.531,0.3984 v 6.338 c -0.547,0.1448 -1.057,0.4346 -1.531,0.7243 V 26 h 5.248 v -0.9054 c -0.292,-0.2173 -0.729,-0.5795 -1.13,-0.7243 v -3.7304 c 0,-1.4849 0.729,-2.7524 2.114,-2.7524 1.239,0 1.567,1.0865 1.567,3.006 0,1.0502 -0.037,2.4989 -0.11,3.4768 -0.4,0.1448 -0.801,0.4708 -1.093,0.7243 V 26 h 5.212 z m 4.883,-1.7022 V 11.8392 c -1.385,-0.0724 -2.988,0.1087 -4.045,0.3622 v 1.0141 c 0.51,0.1086 1.057,0.2535 1.421,0.4346 v 10.7202 c -0.51,0.1811 -0.984,0.4346 -1.421,0.7243 v 0.9417 h 5.503 v -0.9779 c -0.365,-0.2535 -0.948,-0.5795 -1.458,-0.7243 z m 11.88,0.5432 -0.218,-1.0503 h -0.948 c -0.145,-0.3984 -0.182,-0.7243 -0.182,-1.1589 v -3.839 c 0,-1.7022 -1.057,-2.7525 -3.863,-2.7525 -2.259,0.2535 -4.045,1.3762 -4.045,2.1006 0,0.6881 0.364,1.2676 1.239,1.2676 1.895,0 0.692,-1.9557 2.15,-1.9557 1.203,0 1.895,0.7243 1.895,1.9919 v 0.9054 c -2.77,0.1087 -5.43,1.2676 -5.43,2.7525 0,1.9557 1.057,3.1147 2.405,3.1147 1.167,0 2.187,-0.3622 3.28,-1.4849 h 0.037 c 0.073,0.3259 0.291,1.014 0.546,1.5211 1.057,-0.2535 2.333,-0.7606 3.134,-1.4125 z m -3.972,-2.2816 c 0,0.9416 -1.166,1.8832 -1.968,1.8832 -0.437,0 -0.874,-0.5432 -0.874,-1.5935 0,-0.6881 0.838,-1.2314 2.879,-1.3763 v 1.0866 z m 16.728,3.4406 v -0.9779 c -0.365,-0.2535 -0.839,-0.5433 -1.385,-0.7243 0.073,-1.2314 0.109,-2.7887 0.109,-4.0201 0,-2.8249 -1.057,-4.2012 -3.207,-4.2012 -1.64,0 -2.842,0.7968 -3.353,1.9195 l -0.036,-0.0362 c 0.073,-0.4708 0.109,-1.2676 0.109,-1.7746 -1.348,-0.0362 -2.952,0.1086 -4.045,0.3984 v 0.9778 c 0.583,0.0725 1.093,0.2173 1.531,0.3984 v 6.338 c -0.547,0.1448 -1.057,0.4346 -1.531,0.7243 V 26 h 5.248 v -0.9054 c -0.292,-0.2173 -0.729,-0.5795 -1.13,-0.7243 v -3.7304 c 0,-1.4849 0.729,-2.7524 2.114,-2.7524 1.239,0 1.567,1.0865 1.567,3.006 0,1.0502 -0.037,2.4989 -0.109,3.4768 -0.401,0.1448 -0.802,0.4708 -1.094,0.7243 V 26 h 5.212 z m 11.297,-0.2898 v -1.014 c -0.51,-0.1087 -0.984,-0.2898 -1.385,-0.4347 V 11.8392 c -1.458,-0.0724 -3.061,0.0725 -4.118,0.3622 v 1.0141 c 0.547,0.1086 1.093,0.2535 1.531,0.4346 v 2.6076 c -0.474,-0.0724 -0.875,-0.0724 -1.276,-0.0724 -3.207,0 -5.32,2.0281 -5.32,5.4687 0,2.7525 1.421,4.5996 3.717,4.5996 1.53,0 2.66,-0.9055 3.097,-1.992 l 0.037,0.0362 c -0.109,0.5071 -0.109,1.2676 -0.109,1.8109 1.494,0.0362 2.769,-0.1087 3.826,-0.3622 z m -3.972,-4.1287 c 0,1.5935 -0.875,2.8249 -1.895,2.8249 -1.276,0 -1.968,-1.34 -1.968,-3.1509 0,-2.4265 0.911,-3.6941 2.296,-3.6941 0.656,0 1.202,0.1811 1.567,0.4346 z m 6.851,1.6298 c -0.838,0 -1.531,0.6881 -1.531,1.5211 0,0.7967 0.693,1.4849 1.531,1.4849 0.838,0 1.531,-0.6882 1.531,-1.5211 0,-0.833 -0.693,-1.4849 -1.531,-1.4849 z m 10.897,-9.6337 c 0,-0.9055 -0.984,-1.8471 -2.77,-1.8471 -0.328,0 -0.474,0.0362 -0.729,0.0724 -2.004,0.2898 -2.843,1.5936 -2.843,4.0563 v 0.4346 h -1.639 v 1.4487 h 1.639 v 6.5915 c -0.583,0.1448 -1.166,0.4708 -1.567,0.7243 v 0.9417 h 5.831 v -0.9779 c -0.473,-0.2535 -1.057,-0.5433 -1.64,-0.7243 v -6.5915 h 2.442 v -1.4487 h -2.478 v -1.4125 c 0,-0.7967 0.109,-1.34 0.401,-1.5935 0.109,-0.1086 0.218,-0.1449 0.401,-0.1449 0.218,0 0.328,0.0363 0.437,0.1811 0.255,0.326 -0.219,1.5573 1.276,1.5573 0.874,0 1.239,-0.507 1.239,-1.2675 z m 5.43,12.4224 v -0.9779 c -0.438,-0.2535 -0.875,-0.5433 -1.422,-0.7243 v -8.1126 c -1.457,-0.0362 -2.624,0.0362 -3.753,0.3259 v 1.0865 c 0.255,0.0725 0.692,0.2173 1.129,0.3622 v 6.338 c -0.546,0.1448 -1.056,0.4346 -1.53,0.7243 V 26 h 5.576 z m -1.13,-12.4224 c 0,-0.7968 -0.729,-1.4487 -1.567,-1.4487 -0.802,0 -1.567,0.6519 -1.567,1.4849 0,0.7967 0.729,1.4486 1.567,1.4486 0.838,-0.0362 1.567,-0.6881 1.567,-1.4848 z"
     id="path86"
     inkscape:connector-curvature="0"
     style="fill:#000000" />
  <path
     d="M63.7482 18.6897C61.5616 18.7621 59.9217 16.8426 59.8488 15.1042C59.7759 13.0398 61.4158 11.229 63.4567 11.1565C65.4975 11.0841 67.2832 12.7863 67.3561 14.7782C67.429 16.9875 65.7161 18.581 63.7482 18.6897Z"
     fill="#F08200"
     id="path88" />
  <path
     d="M15.6069 27.7441C14.2949 26.549 12.9465 25.39 11.4888 25.2452C9.48441 25.0641 8.13601 26.4766 7.84447 28.1425C7.26137 31.5469 14.3678 38.4644 20.053 40.3476C21.7294 40.8909 23.4057 40.239 23.6244 39.0438C24.0982 36.5811 17.0646 29.048 15.6069 27.7441Z"
     fill="#ED3621"
     id="path90" />
  <path
     d="m 20.525424,17.997082 c -0.0729,-1.5573 -1.3849,-2.9697 -3.1706,-2.8973 -1.64,0.0724 -2.9884,1.3762 -2.9155,3.1146 0.0729,1.4849 1.3849,3.006 3.1341,2.9336 1.6764,-0.0724 3.0248,-1.4849 2.952,-3.1509 z m 9.4023,-2.9335 c -0.2915,-2.2455 0.0729,-5.3963509 -4.3732,-5.2152604 -2.223,0.07243 -3.9723,1.9556604 -3.4256,3.9476604 0.3644,1.3038 0.8746,3.1146 0.9475,5.0341 0.1458,3.8752 -3.2435,2.9336 -3.1341,5.5774 0.0364,1.2676 4.9562,9.344 7.2522,10.7927 0.328,0.2173 3.8265,2.6076 4.5918,-2.2455 0.7653,-4.7806 -1.567,-15.6095 -1.8586,-17.8911 z m -6.0131,-7.5331509 c -2.1866,0.07243 -3.8266,-1.84706 -3.8995,-3.58547 -0.0728,-2.06437 1.5671,-3.875216 3.6079,-3.94764985 2.0409,-0.0724338 3.8266,1.62975985 3.8995,3.62168985 0.0728,2.20924 -1.64,3.839 -3.6079,3.91143 z"
     id="path92"
     inkscape:connector-curvature="0"
     style="fill:#00a3e8" />
  <path
     d="m 7.5894837,21.292082 c 0.14577,-1.9558 -1.23907,-3.8753 -3.49856,-4.0563 -2.04082,-0.1449 -3.899429,1.2676 -4.081645,3.4406 -0.14577316,1.847 1.275515,3.9476 3.425665,4.0925 2.11372,0.1448 4.00877,-1.4125 4.15454,-3.4768 z"
     id="path94"
     inkscape:connector-curvature="0"
     style="fill:#ed3621" />
  <path
     d="M61.3044 24.5934C61.5231 22.0944 59.4458 18.8349 56.0201 20.2111C52.5945 21.5874 44.9778 35.8931 45.2694 38.3196C45.4516 39.7321 46.8729 40.4564 48.0755 40.1667C49.2781 39.8769 52.7402 37.1969 54.3437 35.2412C55.7286 33.5028 60.7942 29.8086 61.3044 24.5934Z"
     fill="#F08200"
     id="path96" />
  <path
     d="m 45.198224,24.081082 c 0.656,-2.1368 2.4781,-7.0985 0.1458,-9.9234 -2.3688,-2.8249 -6.1589,-0.3259 -6.7785,2.5714 -0.4009,1.7746 -3.5714,14.7403 -1.7857,17.1306 0.8746,1.159 2.7332,0.9054 4.1545,-0.3984 1.7493,-1.666 3.7537,-7.7866 4.2639,-9.3802 z m 0.2551,-14.5229409 c -2.1866,0.10865 -3.863,-1.77463 -3.9723,-3.51305 -0.1094,-2.06436 1.4942,-3.91143 3.535,-4.02008 2.0408,-0.10865 3.863,1.55733 3.9723,3.54926 0.1458,2.20924 -1.5671,3.87521 -3.535,3.98387 z"
     id="path98"
     inkscape:connector-curvature="0"
     style="fill:#129942" />
</svg>
