<svg width="98" height="12" viewBox="0 0 98 12" fill="none" xmlns="http://www.w3.org/2000/svg">
<path d="M4.84812 11.4713V10.7233C4.51357 10.5293 4.17902 10.3077 3.76083 10.1691V3.96301C2.64566 3.9353 1.44686 4.01842 0.582611 4.24007V5.01583C1.02868 5.07125 1.41898 5.18207 1.75353 5.3206V10.1691C1.30747 10.28 0.94504 10.5016 0.582611 10.7233V11.4436H4.84812V11.4713ZM3.98386 1.96818C3.98386 1.35865 3.42628 0.859941 2.78506 0.859941C2.17172 0.859941 1.58626 1.35865 1.58626 1.99588C1.58626 2.60542 2.14384 3.10412 2.78506 3.10412C3.42628 3.07642 3.98386 2.57771 3.98386 1.96818ZM14.4664 11.4713V10.7233C14.1876 10.5293 13.7973 10.3077 13.407 10.1691C13.4628 9.22714 13.4906 8.03578 13.4906 7.09378C13.4906 4.93272 12.6822 3.87989 11.0373 3.87989C9.78272 3.87989 8.86271 4.48942 8.4724 5.34831L8.44453 5.3206C8.50029 4.96042 8.52816 4.35089 8.52816 3.96301C7.49663 3.9353 6.26995 4.04613 5.43358 4.26777V5.01583C5.87964 5.07125 6.26995 5.18207 6.6045 5.3206V10.1691C6.18632 10.28 5.79601 10.5016 5.43358 10.7233V11.4436H9.50393V10.751C9.2809 10.5847 8.94635 10.3077 8.63968 10.1968V7.34314C8.63968 6.20719 9.19726 5.23748 10.2567 5.23748C11.2046 5.23748 11.4555 6.06866 11.4555 7.53708C11.4555 8.34055 11.4276 9.44879 11.3718 10.1968C11.0652 10.3077 10.7585 10.557 10.5355 10.751V11.4436H14.4664V11.4713ZM21.2968 1.96818C21.2968 1.27553 20.5441 0.555176 19.178 0.555176C17.1428 0.555176 16.3343 1.58029 16.3343 3.68595V4.01842H15.0798V5.12666H16.3343V10.1691C15.8883 10.28 15.4422 10.5293 15.1355 10.7233V11.4436H19.5962V10.6956C19.2337 10.5016 18.7877 10.28 18.3416 10.1414V5.12666H20.2095V4.01842H18.3416V2.93789C18.3416 2.0513 18.5646 1.5803 19.0386 1.5803C19.2059 1.5803 19.3174 1.608 19.401 1.71883C19.5962 1.96818 19.2337 2.91018 20.3768 2.91018C21.018 2.93789 21.2968 2.55 21.2968 1.96818ZM28.6569 7.59249C28.6569 5.18207 27.2908 3.87989 24.949 3.87989C22.5792 3.87989 20.7671 5.43142 20.7671 7.95267C20.7671 10.4462 22.2726 11.6376 24.4471 11.6376C26.9005 11.6099 28.6569 10.086 28.6569 7.59249ZM26.5381 7.81414C26.5381 9.53191 25.8969 10.3077 24.8375 10.3077C23.6108 10.3077 22.8859 9.22714 22.8859 7.6202C22.8859 5.98554 23.4993 5.15436 24.5865 5.15436C25.8411 5.15436 26.5381 6.2349 26.5381 7.81414ZM36.3515 3.9076V1.46947H29.4933V2.18983C29.8557 2.38377 30.3018 2.63312 30.6921 2.77165V10.1691C30.246 10.28 29.8557 10.5016 29.4933 10.7233V11.4436H34.0097V10.6956C33.6194 10.4739 33.2012 10.2523 32.7551 10.1414V6.98296H34.4836C34.5673 7.31543 34.7903 7.6479 34.9576 7.89725H35.8218V5.04354H34.9576C34.8182 5.29289 34.5951 5.62537 34.4836 5.95784H32.7551V2.60542H34.8461C34.9297 3.02101 35.1527 3.51971 35.3479 3.9353L36.3515 3.9076ZM41.5928 11.4713V10.7233C41.2583 10.5293 40.9237 10.3077 40.5055 10.1691V3.96301C39.3904 3.9353 38.1915 4.01842 37.3273 4.24007V5.01583C37.7734 5.07125 38.1637 5.18207 38.4982 5.3206V10.1691C38.0522 10.28 37.6897 10.5016 37.3273 10.7233V11.4436H41.5928V11.4713ZM40.7285 1.96818C40.7285 1.35865 40.171 0.859941 39.5298 0.859941C38.9164 0.859941 38.3309 1.35865 38.3309 1.99588C38.3309 2.60542 38.8885 3.10412 39.5298 3.10412C40.171 3.07642 40.7285 2.57771 40.7285 1.96818ZM51.1832 11.4713V10.7233C50.9044 10.5293 50.542 10.3077 50.1238 10.1691C50.1796 9.22714 50.2075 8.03578 50.2075 7.09378C50.2075 4.93272 49.399 3.87989 47.7541 3.87989C46.4995 3.87989 45.5795 4.48942 45.1892 5.34831L45.1613 5.3206C45.2171 4.96042 45.245 4.35089 45.245 3.96301C44.2134 3.9353 42.9868 4.04613 42.1504 4.26777V5.01583C42.5965 5.07125 42.9868 5.18207 43.3213 5.3206V10.1691C42.9031 10.28 42.5128 10.5016 42.1504 10.7233V11.4436H46.165V10.751C45.9419 10.5847 45.6074 10.3077 45.3007 10.1968V7.34314C45.3007 6.20719 45.8583 5.23748 46.9177 5.23748C47.8656 5.23748 48.1165 6.06866 48.1165 7.53708C48.1165 8.34055 48.0886 9.44879 48.0329 10.1968C47.7262 10.3077 47.4195 10.557 47.1965 10.751V11.4436H51.1832V11.4713ZM54.919 10.1691V0.610587C53.8596 0.555175 52.6329 0.693705 51.8244 0.887646V1.66341C52.2147 1.74653 52.6329 1.85735 52.9117 1.99588V10.1968C52.5214 10.3354 52.159 10.5293 51.8244 10.751V11.4713H56.0342V10.7233C55.7554 10.5293 55.3093 10.28 54.919 10.1691ZM64.0076 10.5847L63.8403 9.78126H63.1155C63.004 9.47649 62.9761 9.22714 62.9761 8.89467V5.95784C62.9761 4.65566 62.1676 3.85219 60.0209 3.85219C58.2924 4.04613 56.9263 4.90501 56.9263 5.45913C56.9263 5.98554 57.2051 6.42884 57.8742 6.42884C59.3239 6.42884 58.4039 4.93272 59.5191 4.93272C60.4391 4.93272 60.9688 5.48684 60.9688 6.45654V7.14919C58.85 7.23231 56.8148 8.1189 56.8148 9.25485C56.8148 10.751 57.6233 11.6376 58.6548 11.6376C59.547 11.6376 60.3276 11.3605 61.1639 10.5016H61.1918C61.2476 10.751 61.4149 11.2774 61.61 11.6653C62.4185 11.4713 63.3943 11.0834 64.0076 10.5847ZM60.9688 8.83926C60.9688 9.55961 60.0767 10.28 59.4633 10.28C59.1288 10.28 58.7942 9.86438 58.7942 9.0609C58.7942 8.53449 59.4354 8.1189 60.9967 8.00808V8.83926H60.9688ZM73.7653 11.4713V10.7233C73.4865 10.5293 73.1241 10.3077 72.7059 10.1691C72.7617 9.22714 72.7895 8.03578 72.7895 7.09378C72.7895 4.93272 71.9811 3.87989 70.3362 3.87989C69.0816 3.87989 68.1616 4.48942 67.7713 5.34831L67.7434 5.3206C67.7992 4.96042 67.8271 4.35089 67.8271 3.96301C66.7955 3.9353 65.5689 4.04613 64.7325 4.26777V5.01583C65.1785 5.07125 65.5688 5.18207 65.9034 5.3206V10.1691C65.4852 10.28 65.0949 10.5016 64.7325 10.7233V11.4436H68.7471V10.751C68.524 10.5847 68.1895 10.3077 67.8828 10.1968V7.34314C67.8828 6.20719 68.4404 5.23748 69.4998 5.23748C70.4477 5.23748 70.6986 6.06866 70.6986 7.53708C70.6986 8.34055 70.6707 9.44879 70.615 10.1968C70.3083 10.3077 70.0016 10.557 69.7786 10.751V11.4436H73.7653V11.4713ZM82.4078 11.2497V10.4739C82.0175 10.3908 81.6551 10.2523 81.3484 10.1414V0.610587C80.2333 0.555175 79.0066 0.665999 78.1981 0.887646V1.66341C78.6163 1.74653 79.0345 1.85735 79.369 1.99588V3.99072C79.0066 3.9353 78.6999 3.9353 78.3932 3.9353C75.9399 3.9353 74.3229 5.48684 74.3229 8.1189C74.3229 10.2246 75.4102 11.6376 77.1666 11.6376C78.3375 11.6376 79.2017 10.9449 79.5363 10.1137L79.5642 10.1414C79.4805 10.5293 79.4805 11.1111 79.4805 11.5267C80.6236 11.5544 81.5993 11.4436 82.4078 11.2497ZM79.369 8.0912C79.369 9.31026 78.6999 10.2523 77.9193 10.2523C76.9435 10.2523 76.4138 9.22714 76.4138 7.84184C76.4138 5.98554 77.1108 5.01583 78.1702 5.01583C78.672 5.01583 79.0902 5.15436 79.369 5.34831V8.0912ZM84.6103 9.33796C83.9691 9.33796 83.4394 9.86438 83.4394 10.5016C83.4394 11.1111 83.9691 11.6376 84.6103 11.6376C85.2515 11.6376 85.7812 11.1111 85.7812 10.4739C85.7812 9.83667 85.2515 9.33796 84.6103 9.33796ZM92.9462 1.96818C92.9462 1.27553 92.1934 0.555176 90.8273 0.555176C90.5764 0.555176 90.4649 0.582881 90.2698 0.610587C88.7364 0.832235 88.0952 1.82965 88.0952 3.71366V4.04613H86.8406V5.15436H88.0952V10.1968C87.6491 10.3077 87.203 10.557 86.8964 10.751V11.4713H91.357V10.7233C90.9946 10.5293 90.5485 10.3077 90.1025 10.1691V5.12666H91.9704V4.01842H90.0746V2.93789C90.0746 2.32836 90.1582 1.91277 90.3813 1.71883C90.4649 1.63571 90.5486 1.608 90.6879 1.608C90.8552 1.608 90.9389 1.63571 91.0225 1.74653C91.2177 1.99589 90.8552 2.93789 91.9983 2.93789C92.6674 2.93789 92.9462 2.55 92.9462 1.96818ZM97.1001 11.4713V10.7233C96.7656 10.5293 96.431 10.3077 96.0129 10.1691V3.96301C94.8977 3.9353 94.0056 3.99071 93.1413 4.21236V5.04354C93.3365 5.09895 93.671 5.20978 94.0056 5.3206V10.1691C93.5874 10.28 93.1971 10.5016 92.8346 10.7233V11.4436H97.1001V11.4713ZM96.2359 1.96818C96.2359 1.35865 95.6783 0.859941 95.0371 0.859941C94.4237 0.859941 93.8383 1.35865 93.8383 1.99588C93.8383 2.60542 94.3959 3.10412 95.0371 3.10412C95.6783 3.07642 96.2359 2.57771 96.2359 1.96818Z" fill="black"/>
</svg>
