<svg width="35" height="35" viewBox="0 0 35 35" fill="none" xmlns="http://www.w3.org/2000/svg">
<path fill-rule="evenodd" clip-rule="evenodd" d="M17.4557 34.0974V34.0974C8.36743 34.0974 1 26.6878 1 17.5487C1 8.40957 8.36743 1 17.4557 1C26.5447 1 33.9122 8.40957 33.9122 17.5487C33.9122 26.6878 26.5447 34.0974 17.4557 34.0974Z" stroke="black" stroke-width="1.5"/>
<path fill-rule="evenodd" clip-rule="evenodd" d="M17.4551 8.47461C15.0045 8.47461 14.6984 8.48591 13.7351 8.52939C12.7752 8.57374 12.1189 8.72765 11.5448 8.952C10.9516 9.18331 10.4483 9.49374 9.94674 9.99809C9.44521 10.5024 9.1365 11.0085 8.90648 11.6059C8.68252 12.1824 8.5312 12.8416 8.48709 13.8077C8.44299 14.7755 8.43262 15.085 8.43262 17.5485C8.43262 20.0129 8.44299 20.3216 8.48709 21.2894C8.5312 22.2555 8.68252 22.9146 8.90648 23.492C9.1365 24.0885 9.44521 24.5946 9.94674 25.099C10.4483 25.6033 10.9516 25.9137 11.5448 26.145C12.1189 26.3694 12.7752 26.5233 13.7351 26.5677C14.6984 26.6111 15.0045 26.6216 17.4551 26.6216C19.9057 26.6216 20.2127 26.6111 21.176 26.5677C22.1359 26.5233 22.7922 26.3694 23.3655 26.145C23.9587 25.9137 24.4628 25.6033 24.9644 25.099C25.4659 24.5946 25.7737 24.0885 26.0046 23.492C26.2277 22.9146 26.3799 22.2555 26.424 21.2894C26.4681 20.3216 26.4785 20.0129 26.4785 17.5485C26.4785 15.085 26.4681 14.7755 26.424 13.8077C26.3799 12.8416 26.2277 12.1824 26.0046 11.6059C25.7737 11.0085 25.4659 10.5024 24.9644 9.99809C24.4628 9.49374 23.9587 9.18331 23.3655 8.952C22.7922 8.72765 22.1359 8.57374 21.176 8.52939C20.2127 8.48591 19.9057 8.47461 17.4551 8.47461ZM17.455 10.1104C19.8641 10.1104 20.1495 10.1199 21.1016 10.1625C21.981 10.2025 22.4583 10.3512 22.7765 10.4756C23.1985 10.6399 23.4986 10.8364 23.8142 11.1538C24.1307 11.4712 24.3252 11.7738 24.4895 12.1973C24.6123 12.5164 24.7593 12.9973 24.8 13.8825C24.8432 14.839 24.8527 15.1251 24.8527 17.5486C24.8527 19.9721 24.8432 20.2582 24.8 21.2147C24.7593 22.0999 24.6123 22.5808 24.4895 22.8999C24.3252 23.3234 24.1307 23.626 23.8142 23.9434C23.4986 24.2599 23.1985 24.4573 22.7765 24.6217C22.4583 24.746 21.981 24.8938 21.1016 24.9347C20.1495 24.9782 19.865 24.9869 17.455 24.9869C15.0459 24.9869 14.7606 24.9782 13.8094 24.9347C12.9299 24.8938 12.4518 24.746 12.1344 24.6217C11.7124 24.4573 11.4124 24.2599 11.0959 23.9434C10.7802 23.626 10.5857 23.3234 10.4214 22.8999C10.2986 22.5808 10.1516 22.0999 10.111 21.2147C10.0677 20.2582 10.0582 19.9721 10.0582 17.5486C10.0582 15.1251 10.0677 14.839 10.111 13.8825C10.1516 12.9973 10.2986 12.5164 10.4214 12.1973C10.5857 11.7738 10.7802 11.4712 11.0959 11.1538C11.4124 10.8364 11.7124 10.6399 12.1344 10.4756C12.4518 10.3512 12.9299 10.2025 13.8094 10.1625C14.7606 10.1199 15.0459 10.1104 17.455 10.1104Z" fill="black"/>
<path fill-rule="evenodd" clip-rule="evenodd" d="M17.4557 20.5731C15.7946 20.5731 14.4482 19.2183 14.4482 17.5479C14.4482 15.8783 15.7946 14.5244 17.4557 14.5244C19.1169 14.5244 20.4641 15.8783 20.4641 17.5479C20.4641 19.2183 19.1169 20.5731 17.4557 20.5731ZM17.4556 12.8896C14.8968 12.8896 12.8232 14.9757 12.8232 17.5479C12.8232 20.1218 14.8968 22.2079 17.4556 22.2079C20.0151 22.2079 22.0887 20.1218 22.0887 17.5479C22.0887 14.9757 20.0151 12.8896 17.4556 12.8896Z" fill="black"/>
<path fill-rule="evenodd" clip-rule="evenodd" d="M23.3547 12.7054C23.3547 13.3063 22.8696 13.7941 22.2721 13.7941C21.6746 13.7941 21.1895 13.3063 21.1895 12.7054C21.1895 12.1045 21.6746 11.6167 22.2721 11.6167C22.8696 11.6167 23.3547 12.1045 23.3547 12.7054Z" fill="black"/>
</svg>
