<svg width="35" height="35" viewBox="0 0 35 35" fill="none" xmlns="http://www.w3.org/2000/svg">
<path fill-rule="evenodd" clip-rule="evenodd" d="M17.4557 34.0974V34.0974C8.36743 34.0974 1 26.6878 1 17.5487C1 8.40957 8.36743 1 17.4557 1C26.5447 1 33.9122 8.40957 33.9122 17.5487C33.9122 26.6878 26.5447 34.0974 17.4557 34.0974Z" stroke="black" stroke-width="1.5"/>
<path d="M26.5543 13.0496C26.4452 12.6536 26.2318 12.2926 25.9354 12.0026C25.6389 11.7126 25.2699 11.5038 24.8652 11.397C23.3743 11 17.3995 11 17.3995 11C17.3995 11 11.4231 11 9.93527 11.3908C9.52964 11.4979 9.15997 11.7075 8.86345 11.9987C8.56693 12.2899 8.35403 12.6523 8.24615 13.0496C7.84668 14.5068 7.84668 17.5489 7.84668 17.5489C7.84668 17.5489 7.84668 20.5909 8.24615 22.0481C8.35499 22.4442 8.56832 22.8054 8.86478 23.0955C9.16123 23.3855 9.53039 23.5942 9.93527 23.7007C11.4246 24.0916 17.3995 24.0916 17.3995 24.0916C17.3995 24.0916 23.3758 24.0916 24.8652 23.7007C25.2699 23.5939 25.6389 23.3851 25.9354 23.0951C26.2318 22.8051 26.4452 22.4441 26.5543 22.0481C26.9522 20.5909 26.9522 17.5489 26.9522 17.5489C26.9522 17.5489 26.9475 14.5068 26.5543 13.0496Z" fill="#282828"/>
<path d="M15.4883 20.353V14.7458L20.4534 17.5494L15.4883 20.353Z" fill="white"/>
</svg>
